<svg width="39" height="39" viewBox="0 0 39 39" fill="none" xmlns="http://www.w3.org/2000/svg">
<rect width="39" height="39" rx="19.5" fill="#4CAF50"/>
<path d="M29.2329 11.4684C29.1287 11.5978 29.0455 11.7473 28.9177 11.8533C26.5184 13.8347 24.4692 16.0919 22.5271 18.4314C19.9413 21.5462 17.595 24.8041 15.401 28.1523C15.3107 28.2903 15.1479 28.3904 15.0187 28.5079H14.7825C14.6618 28.3925 14.5156 28.2916 14.4252 28.1592C12.784 25.7592 10.9517 23.4769 9.13158 21.1872C8.80694 20.7789 8.4752 20.3748 8.14866 19.9669C7.93476 19.6999 7.94943 19.524 8.20734 19.2932C8.62569 18.9185 9.04687 18.5468 9.46805 18.1746C9.77424 17.9042 9.93324 17.8931 10.292 18.1184C11.7491 19.033 13.2057 19.9485 14.6623 20.8636C14.7073 20.8917 14.7532 20.9186 14.8142 20.9552C15.1318 20.6005 15.4436 20.247 15.7621 19.8979C18.4151 16.987 21.3194 14.3052 24.6652 12.0292C25.1228 11.7179 25.597 11.4258 26.0783 11.1452C26.2202 11.0626 26.4109 11.0149 26.5813 11.0111C27.2419 10.9957 27.9035 11.0153 28.5637 11.0004C28.8983 10.9928 29.1269 11.0894 29.2333 11.3828V11.468L29.2329 11.4684Z" fill="white"/>
</svg>
