<svg width="44" height="14" viewBox="0 0 44 14" fill="none" xmlns="http://www.w3.org/2000/svg">
<path d="M16.2637 12.6932L18.4467 0.410156H21.8587L19.7437 12.6932H16.2637Z" fill="#3C58BF"/>
<path d="M16.2637 12.6932L19.0637 0.410156H21.8637L19.7487 12.6932H16.2637Z" fill="#293688"/>
<path d="M32.0953 0.546274C31.0918 0.171389 30.0274 -0.0137749 28.9563 0.000253072C25.5433 0.000253072 23.0873 1.70624 23.0873 4.16224C23.0873 6.00424 24.7933 6.96229 26.1583 7.57429C27.5233 8.18629 27.9323 8.59826 27.9323 9.14326C27.9323 9.96226 26.8403 10.3713 25.8853 10.3713C24.7559 10.396 23.6357 10.1623 22.6103 9.68824L22.1323 9.48829L21.6543 12.2883C22.8995 12.7473 24.2172 12.9787 25.5443 12.9713C29.1563 12.9713 31.5493 11.2653 31.5493 8.67127C31.5493 7.23827 30.6613 6.14629 28.6143 5.25929C27.3863 4.64429 26.6363 4.30426 26.6363 3.69026C26.6363 3.14426 27.2503 2.59828 28.6143 2.59828C29.503 2.57122 30.3873 2.73382 31.2083 3.07527L31.5493 3.21229L32.0953 0.551278V0.546274Z" fill="#3C58BF"/>
<path d="M32.0953 0.546274C31.0918 0.171389 30.0274 -0.0137749 28.9563 0.000253072C25.5433 0.000253072 23.7013 1.70624 23.7013 4.16224C23.6965 4.91793 23.9318 5.65568 24.3734 6.26893C24.8151 6.88218 25.4401 7.33928 26.1583 7.57429C27.5223 8.18929 27.9323 8.59826 27.9323 9.14326C27.9323 9.96226 26.8403 10.3713 25.8853 10.3713C24.7559 10.396 23.6357 10.1623 22.6103 9.68824L22.1323 9.48829L21.6543 12.2883C22.8995 12.7473 24.2172 12.9787 25.5443 12.9713C29.1563 12.9713 31.5493 11.2653 31.5493 8.67127C31.5493 7.23827 30.6613 6.14629 28.6143 5.25929C27.3863 4.64429 26.6363 4.30426 26.6363 3.69026C26.6363 3.14426 27.2503 2.59828 28.6143 2.59828C29.503 2.57122 30.3873 2.73382 31.2083 3.07527L31.5493 3.21229L32.0953 0.551278V0.546274Z" fill="#293688"/>
<path d="M37.9623 0.410156C37.1433 0.410156 36.5293 0.479157 36.1883 1.29816L31.0703 12.6912H34.7553L35.4373 10.6442H39.8043L40.2143 12.6912H43.4893L40.6223 0.410156H37.9623ZM36.3933 8.59814C36.5933 7.98314 37.7573 4.98615 37.7573 4.98615C37.7573 4.98615 38.0303 4.23618 38.2353 3.75818L38.4353 4.91718C38.4353 4.91718 39.1183 7.98817 39.2543 8.67017H36.3883L36.3933 8.59814Z" fill="#3C58BF"/>
<path d="M38.7803 0.410156C37.9613 0.410156 37.3473 0.479157 37.0063 1.29816L31.0703 12.6912H34.7553L35.4373 10.6442H39.8043L40.2143 12.6912H43.4893L40.6223 0.410156H38.7803ZM36.3923 8.59814C36.6653 7.91514 37.7563 4.98615 37.7563 4.98615C37.7563 4.98615 38.0293 4.23618 38.2343 3.75818L38.4343 4.91718C38.4343 4.91718 39.1173 7.98817 39.2533 8.67017H36.3873L36.3923 8.59814Z" fill="#293688"/>
<path d="M9.98518 9.00897L9.64418 7.23499C8.78585 4.90156 7.08038 2.97688 4.86719 1.84399L7.93819 12.762H11.6232L17.1512 0.479004H13.4652L9.98518 9.00897Z" fill="#3C58BF"/>
<path d="M9.98518 9.00897L9.64418 7.23499C8.78585 4.90156 7.08038 2.97688 4.86719 1.84399L7.93819 12.762H11.6232L17.1512 0.479004H14.1512L9.98518 9.00897Z" fill="#293688"/>
<path d="M0.5 0.410156L1.114 0.54718C5.481 1.57118 8.484 4.15917 9.644 7.23517L8.416 1.43518C8.216 0.616181 7.597 0.411133 6.847 0.411133L0.5 0.410156Z" fill="#FFBC00"/>
<path d="M0.5 0.410156C4.867 1.43416 8.484 4.09516 9.644 7.16516L8.48399 2.32013C8.40013 1.94933 8.19212 1.61832 7.89441 1.3819C7.5967 1.14548 7.22716 1.01784 6.847 1.02014L0.5 0.410156Z" fill="#F7981D"/>
<path d="M0.5 0.410156C4.867 1.43416 8.484 4.09516 9.644 7.16516L8.825 4.50415C8.78413 4.07665 8.62973 3.66784 8.37778 3.32007C8.12582 2.97229 7.78548 2.69823 7.392 2.52618L0.5 0.410156Z" fill="#ED7C00"/>
<path d="M13.3975 8.59802L11.0825 6.28204L9.99049 8.875L9.7175 7.16901C8.86045 4.83164 7.15358 2.90342 4.9375 1.76904L8.00749 12.687H11.6925L13.3975 8.59802Z" fill="#051244"/>
<path d="M19.7437 12.6919L16.8097 9.69189L16.2637 12.6919H19.7437Z" fill="#051244"/>
<path d="M27.5922 8.46191C27.8652 8.73591 28.0012 8.93991 27.9332 9.21191C27.9332 10.0309 26.8412 10.4399 25.8862 10.4399C24.7568 10.4644 23.6367 10.2308 22.6113 9.7569L22.1332 9.55688L21.6562 12.3569C22.9015 12.8159 24.2191 13.0473 25.5462 13.0399C26.4486 13.1032 27.3544 12.9848 28.2101 12.6918C29.0659 12.3987 29.8541 11.937 30.5282 11.3339L27.5922 8.46191Z" fill="#051244"/>
<path d="M31.5488 12.6919H34.7558L35.4378 10.6449H39.8048L40.2148 12.6919H43.4898L42.3298 7.7099L38.2378 3.75391L38.4378 4.84589C38.4378 4.84589 39.1208 7.91688 39.2568 8.59888H36.3908C36.6648 7.91588 37.7548 4.98688 37.7548 4.98688C37.7548 4.98688 38.0288 4.23691 38.2328 3.75891" fill="#051244"/>
</svg>
