<svg width="40" height="25" viewBox="0 0 40 25" fill="none" xmlns="http://www.w3.org/2000/svg">
<path d="M38.2779 12.2502C38.2778 15.0872 37.2225 17.8227 35.3172 19.9247C33.412 22.0266 30.7931 23.3448 27.9698 23.6228C25.1465 23.9008 22.3207 23.1187 20.0421 21.4287C17.7635 19.7387 16.1949 17.2616 15.6415 14.4792C15.088 11.6967 15.5894 8.80794 17.0478 6.37462C18.5063 3.9413 20.8177 2.13743 23.5325 1.31389C26.2473 0.490353 29.1713 0.70602 31.7359 1.91893C34.3005 3.13184 36.3222 5.2553 37.4079 7.87627C37.9824 9.26299 38.278 10.7492 38.2779 12.2502Z" fill="#FFC107"/>
<path d="M17.7208 19.1064C17.1838 18.3993 16.7314 17.6317 16.3727 16.8195H22.4578C22.7801 16.0856 23.0238 15.3196 23.1847 14.5344H15.6487C15.4938 13.7826 15.4158 13.017 15.4158 12.2494H23.4158C23.4152 11.4821 23.3388 10.7168 23.1877 9.96447H15.6417C15.8033 9.17866 16.0473 8.41204 16.3697 7.67743H22.4548C22.0982 6.86618 21.6481 6.09936 21.1138 5.39245H17.7137C18.2099 4.7246 18.7773 4.11266 19.4058 3.56744C17.6656 2.07506 15.5169 1.14037 13.2388 0.884762C10.9606 0.629153 8.65822 1.06446 6.63061 2.13409C4.603 3.20372 2.94383 4.85829 1.86858 6.88293C0.793337 8.90757 0.35171 11.2088 0.601006 13.4876C0.850301 15.7665 1.77898 17.9177 3.26653 19.662C4.75408 21.4063 6.73177 22.663 8.94268 23.2689C11.1536 23.8749 13.4956 23.8021 15.6646 23.06C17.8336 22.3179 19.7294 20.9407 21.1058 19.1074L17.7208 19.1064Z" fill="#FF3D00"/>
<path d="M39.4465 12.3611C39.4217 15.2233 38.3336 17.9741 36.3937 20.0788C34.4537 22.1835 31.8006 23.4917 28.9498 23.7493C26.0991 24.0068 23.2544 23.1952 20.9687 21.4723C18.683 19.7493 17.1195 17.2382 16.5821 14.4267C16.0447 11.6152 16.5718 8.70437 18.061 6.25989C19.5501 3.81541 21.8949 2.01194 24.6397 1.19995C27.3845 0.387964 30.3331 0.625471 32.9125 1.86634C35.4919 3.1072 37.5178 5.2628 38.5965 7.91413C39.1707 9.32578 39.4597 10.8372 39.4465 12.3611Z" fill="#FFB600"/>
<path d="M27.9075 0.820126C30.2135 0.803519 32.4724 1.47321 34.3967 2.74401C36.3211 4.01482 37.8239 5.82932 38.7142 7.95666C39.6044 10.084 39.8417 12.4281 39.396 14.6907C38.9502 16.9533 37.8416 19.0322 36.211 20.6629C34.5804 22.2936 32.5016 23.4025 30.239 23.8484C27.9764 24.2944 25.6324 24.0573 23.5049 23.1672C21.3775 22.2772 19.5629 20.7745 18.2919 18.8502C17.021 16.926 16.3511 14.6672 16.3675 12.3611" fill="#F7981D"/>
<path d="M27.9062 0.820312C30.967 0.820312 33.9023 2.03618 36.0666 4.20044C38.2309 6.3647 39.4467 9.30011 39.4467 12.3608C39.4467 15.4216 38.2309 18.3569 36.0666 20.5212C33.9023 22.6854 30.967 23.9013 27.9062 23.9013" fill="#FF8500"/>
<path d="M12.3992 0.820313C9.35386 0.859786 6.44761 2.10142 4.31382 4.2746C2.18004 6.44777 0.991747 9.37631 1.00798 12.4219C1.02421 15.4674 2.24361 18.3831 4.40043 20.5334C6.55726 22.6837 9.47666 23.8943 12.5223 23.9013C15.3867 23.8888 18.1467 22.824 20.2773 20.9093C20.6941 20.5324 21.0816 20.1243 21.4363 19.6884H19.0552C18.7511 19.3164 18.466 18.9292 18.2012 18.5283H22.2882C22.5482 18.1422 22.7731 17.7335 22.9602 17.3073H17.5292C17.3298 16.9156 17.1665 16.5066 17.0412 16.0853H23.3923C23.782 14.9031 23.9877 13.6681 24.0022 12.4233C23.9847 11.6039 23.9031 10.7871 23.7582 9.98035H16.6712C16.7445 9.56667 16.8467 9.15866 16.9772 8.75934H23.3273C23.2018 8.3383 23.0381 7.92959 22.8382 7.53833H17.4712C17.6712 7.11822 17.8956 6.71021 18.1432 6.31635H22.2333C21.9827 5.87102 21.6747 5.46051 21.3172 5.09534H19.0582C19.414 4.67897 19.8019 4.29109 20.2182 3.9353C18.1094 1.9861 15.3358 0.915849 12.4642 0.943298C12.4602 0.820298 12.4602 0.820313 12.3992 0.820313Z" fill="#FF5050"/>
<path d="M0.978519 12.3643C0.977336 13.8801 1.27504 15.3813 1.85456 16.7819C2.43408 18.1825 3.28408 19.4552 4.3559 20.527C5.42772 21.5988 6.70032 22.4488 8.10096 23.0283C9.50159 23.6078 11.0027 23.9055 12.5185 23.9043C15.383 23.8919 18.143 22.8271 20.2735 20.9123C20.6907 20.5354 21.0785 20.1272 21.4335 19.6913H19.0525C18.7477 19.3196 18.4624 18.9324 18.1975 18.5313H22.2845C22.5446 18.1452 22.7695 17.7366 22.9565 17.3103H17.5255C17.3261 16.9185 17.1624 16.5096 17.0365 16.0883H23.3875C23.7777 14.9063 23.9835 13.6711 23.9975 12.4264C23.9803 11.6069 23.8988 10.79 23.7535 9.9833H16.6705C16.7429 9.56955 16.8449 9.16156 16.9755 8.76236H23.3255C23.2 8.34101 23.0363 7.93194 22.8366 7.54031H17.4616C17.6622 7.12087 17.8865 6.71326 18.1335 6.31936H22.2246C21.9745 5.8737 21.6664 5.46313 21.3085 5.09835H19.0495C19.4053 4.68201 19.7932 4.29412 20.2095 3.93832C18.1007 1.98912 15.3271 0.918866 12.4555 0.946316H12.3955" fill="#E52836"/>
<path d="M12.5214 23.9014C15.3859 23.889 18.1459 22.8242 20.2764 20.9094C20.6936 20.5325 21.0814 20.1243 21.4364 19.6884H19.0574C18.7526 19.3167 18.4672 18.9296 18.2025 18.5284H22.2924C22.5524 18.1423 22.7773 17.7336 22.9644 17.3074H17.5304C17.3314 16.9154 17.1678 16.5065 17.0414 16.0854H23.3924C23.7826 14.9033 23.9884 13.6681 24.0024 12.4234C23.9853 11.6039 23.9037 10.787 23.7584 9.98037H16.6765C16.7488 9.56661 16.8508 9.15856 16.9814 8.75936H23.3324C23.2065 8.33815 23.0429 7.92917 22.8434 7.53737H17.4704C17.671 7.11795 17.8954 6.71028 18.1424 6.31637H22.2334C21.9833 5.87071 21.6753 5.46019 21.3174 5.09542H19.0574C19.4131 4.6789 19.8009 4.291 20.2174 3.93539C18.1081 1.98629 15.3342 0.916081 12.4624 0.943381H12.3984" fill="#CB2026"/>
<path d="M16.6132 15.2914L16.7952 14.2535C16.6949 14.2798 16.593 14.3002 16.4902 14.3145C16.0622 14.3145 16.0023 14.0704 16.0623 13.9474L16.4293 11.8115H17.1013L17.2833 10.6515H16.6732L16.7952 9.91943H15.5742C15.5742 9.91943 14.8422 13.9485 14.8422 14.4385C14.824 14.5738 14.8361 14.7114 14.8776 14.8415C14.9191 14.9715 14.989 15.0908 15.0822 15.1905C15.1761 15.29 15.2909 15.3675 15.4182 15.4175C15.5455 15.4667 15.6822 15.4868 15.8182 15.4764C16.0936 15.4736 16.3649 15.4105 16.6132 15.2914Z" fill="white"/>
<path d="M17.038 13.338C17.0077 13.6261 17.0421 13.9173 17.1388 14.1904C17.2355 14.4635 17.3919 14.7115 17.5968 14.9163C17.8016 15.1212 18.0496 15.2776 18.3226 15.3743C18.5957 15.471 18.887 15.5054 19.1751 15.475C19.6104 15.5028 20.0468 15.4405 20.457 15.292L20.7011 14.132C20.2957 14.3106 19.8614 14.4142 19.4191 14.438C18.0751 14.438 18.319 13.46 18.319 13.46H20.819C20.9055 13.0981 20.9667 12.7305 21.0021 12.36C21.0195 12.1228 20.9857 11.8847 20.9028 11.6618C20.8199 11.4389 20.69 11.2365 20.5218 11.0683C20.3536 10.9002 20.1512 10.7702 19.9283 10.6873C19.7054 10.6045 19.4672 10.5706 19.2301 10.588C17.9541 10.468 17.038 11.811 17.038 13.338ZM19.1751 11.567C19.8471 11.567 19.7241 12.361 19.7241 12.421H18.3811C18.3811 12.361 18.5031 11.567 19.1751 11.567Z" fill="white"/>
<path d="M26.936 15.291L27.1801 13.947C26.8555 14.1112 26.5037 14.215 26.142 14.2531C25.288 14.2531 24.921 13.581 24.921 12.853C24.921 11.387 25.6531 10.5941 26.5081 10.5941C26.9024 10.6079 27.2844 10.7354 27.608 10.9611L27.79 9.67902C27.3439 9.49895 26.8706 9.39553 26.39 9.37305C24.99 9.37305 23.582 10.594 23.582 12.915C23.582 14.442 24.314 15.48 25.782 15.48C26.1724 15.4586 26.5593 15.3953 26.936 15.291Z" fill="white"/>
<path d="M9.89423 10.4681C9.39513 10.4641 8.89911 10.5466 8.42822 10.712L8.24622 11.749C8.67438 11.5833 9.13015 11.5006 9.58923 11.5051C10.0172 11.5051 10.3842 11.566 10.3842 11.933C10.3842 12.177 10.3232 12.238 10.3232 12.238H9.77423C8.73623 12.238 7.57422 12.666 7.57422 14.069C7.57422 15.169 8.30625 15.413 8.73425 15.413C9.21747 15.4062 9.67834 15.2085 10.0162 14.863L9.95526 15.3511H11.0552L11.5443 11.993C11.5649 11.669 11.4762 11.3474 11.2923 11.0798C11.1084 10.8122 10.8401 10.614 10.5302 10.517C10.3245 10.4533 10.1072 10.4366 9.89423 10.4681ZM10.1382 13.214C10.1382 13.397 10.0152 14.374 9.2832 14.374C9.21853 14.3758 9.15423 14.3642 9.09424 14.34C9.00358 14.3041 8.92617 14.2412 8.8725 14.1598C8.81883 14.0784 8.79151 13.9825 8.79425 13.8851C8.79425 13.5801 8.97723 13.1531 9.89423 13.1531C9.97247 13.1842 10.0546 13.2047 10.1382 13.214Z" fill="white"/>
<path d="M12.7048 15.4143C12.9336 15.4535 13.1682 15.4415 13.3918 15.3793C13.7287 15.2856 14.0246 15.0817 14.2321 14.8003C14.4397 14.5188 14.5469 14.1759 14.5368 13.8263C14.5368 12.3003 13.0708 12.6053 13.0708 11.9953C13.0708 11.6903 13.3148 11.5673 13.7428 11.5673C13.9248 11.5673 14.5968 11.6283 14.5968 11.6283L14.7798 10.5283C14.3998 10.4389 14.0101 10.398 13.6198 10.4063C12.7038 10.4063 11.7888 10.7723 11.7888 11.9933C11.7888 13.3933 13.3158 13.2763 13.3158 13.8243C13.3158 14.1913 12.8878 14.2523 12.5838 14.2523C12.2104 14.2431 11.8401 14.1815 11.4838 14.0693L11.3008 15.1693C11.3578 15.2913 11.6668 15.4143 12.7048 15.4143Z" fill="white"/>
<path d="M37.0669 9.49121L36.8229 11.1403C36.6801 10.9661 36.5039 10.8223 36.3047 10.7173C36.1055 10.6124 35.8873 10.5485 35.6629 10.5292C34.5629 10.5292 33.5879 11.8732 33.5879 13.4592C33.5879 14.4372 34.0769 15.4752 35.1139 15.4752C35.33 15.4746 35.5438 15.4311 35.743 15.3472C35.9421 15.2632 36.1226 15.1405 36.2739 14.9862L36.2139 15.4142H37.4349L38.3509 9.55225L37.0669 9.49121ZM36.5179 12.7272C36.5179 13.3992 36.2129 14.2542 35.5409 14.2542C35.1129 14.2542 34.8689 13.8872 34.8689 13.2772C34.8689 12.3002 35.2969 11.6892 35.8459 11.6892C36.2729 11.6892 36.5179 11.9942 36.5179 12.7272Z" fill="white"/>
<path d="M3.23718 15.3522L3.96918 10.9522L4.09216 15.3522H4.94617L6.53314 10.9522L5.86115 15.3522H7.14417L8.12115 9.49121H6.10614L4.88513 13.0912L4.82318 9.49121H3.05316L2.07617 15.3522H3.23718Z" fill="white"/>
<path d="M22.1643 15.3542C22.5303 13.3392 22.5913 11.6922 23.4463 11.9962C23.5161 11.5103 23.6605 11.0381 23.8743 10.5962H23.6303C23.0803 10.5962 22.6533 11.3282 22.6533 11.3282L22.7753 10.6572H21.6153L20.8203 15.4232H22.1643V15.3542Z" fill="white"/>
<path d="M29.741 10.4683C29.2419 10.4641 28.7458 10.5467 28.275 10.7123L28.0919 11.7502C28.5201 11.5845 28.9758 11.5017 29.4349 11.5063C29.8629 11.5063 30.2299 11.5673 30.2299 11.9343C30.2299 12.1783 30.1689 12.2393 30.1689 12.2393H29.6199C28.5819 12.2393 27.4199 12.6672 27.4199 14.0702C27.4199 15.1702 28.152 15.4142 28.58 15.4142C29.0632 15.4075 29.524 15.2098 29.8619 14.8643L29.8019 15.3523H30.9019L31.3909 11.9943C31.4097 11.7783 31.3788 11.5609 31.3004 11.3588C31.2221 11.1566 31.0984 10.9751 30.939 10.8282C30.7798 10.6805 30.5888 10.5711 30.3808 10.5085C30.1728 10.446 29.9533 10.4319 29.739 10.4673L29.741 10.4683ZM30.046 13.2143C30.046 13.3973 29.9229 14.3743 29.1909 14.3743C29.1266 14.376 29.0626 14.3644 29.0029 14.3403C28.943 14.316 28.8887 14.2799 28.843 14.2343C28.7974 14.1885 28.7615 14.134 28.7374 14.074C28.7134 14.0141 28.7016 13.9498 28.7029 13.8853C28.7029 13.5803 28.8859 13.1533 29.8029 13.1533C29.9849 13.2143 29.985 13.2143 30.046 13.2143Z" fill="white"/>
<path d="M32.4241 15.3542C32.7901 13.3392 32.8521 11.6922 33.7061 11.9962C33.7765 11.5104 33.9209 11.0383 34.1341 10.5962H33.8891C33.3401 10.5962 32.9121 11.3282 32.9121 11.3282L33.0341 10.6572H31.8751L31.0801 15.4232H32.4241V15.3542Z" fill="white"/>
<path d="M14.7216 14.4374C14.7028 14.5728 14.7145 14.7106 14.7561 14.8408C14.7976 14.9709 14.8679 15.09 14.9616 15.1895C15.0552 15.2892 15.17 15.3667 15.2976 15.416C15.4252 15.4654 15.5622 15.4854 15.6986 15.4745C16.0132 15.4763 16.3249 15.414 16.6146 15.2914L16.7965 14.2535C16.6962 14.2798 16.5943 14.3002 16.4916 14.3145C16.0636 14.3145 16.0026 14.0704 16.0636 13.9474L16.4306 11.8115H17.1026L17.2846 10.6515H16.6746L16.7965 9.91943" fill="#DCE5E5"/>
<path d="M17.6504 13.338C17.6504 15.047 18.1994 15.475 19.1774 15.475C19.6128 15.5026 20.0492 15.4404 20.4594 15.292L20.7034 14.132C20.298 14.3104 19.8637 14.4141 19.4214 14.438C18.0774 14.438 18.3214 13.46 18.3214 13.46H20.8214C20.9087 13.0982 20.9699 12.7306 21.0044 12.36C21.0218 12.1229 20.988 11.8849 20.9052 11.6621C20.8223 11.4392 20.6925 11.2368 20.5245 11.0687C20.3564 10.9005 20.1541 10.7706 19.9313 10.6876C19.7086 10.6047 19.4705 10.5707 19.2334 10.588C17.9554 10.468 17.6504 11.811 17.6504 13.338ZM19.1774 11.567C19.8484 11.567 19.9714 12.361 19.9714 12.421H18.3834C18.3834 12.361 18.5054 11.567 19.1774 11.567Z" fill="#DCE5E5"/>
<path d="M26.9306 15.291L27.1746 13.947C26.8501 14.1114 26.4983 14.2151 26.1366 14.2531C25.2816 14.2531 24.9156 13.581 24.9156 12.853C24.9156 11.387 25.6476 10.5941 26.5026 10.5941C26.8969 10.6079 27.2789 10.7354 27.6026 10.9611L27.7856 9.67902C27.3394 9.49911 26.8661 9.3957 26.3856 9.37305C24.9856 9.37305 24.1855 10.594 24.1855 12.915C24.1855 14.442 24.3076 15.48 25.7726 15.48C26.1643 15.4591 26.5526 15.3957 26.9306 15.291Z" fill="#DCE5E5"/>
<path d="M8.24622 11.8113C8.67431 11.6453 9.13008 11.5621 9.58923 11.5663C10.0172 11.5663 10.3842 11.6284 10.3842 11.9944C10.3842 12.2384 10.3232 12.3004 10.3232 12.3004H9.77423C8.73623 12.3004 7.57422 12.7273 7.57422 14.1313C7.57422 15.2313 8.30619 15.4744 8.73419 15.4744C9.21721 15.4676 9.67805 15.2703 10.0162 14.9254L9.9552 15.4133H11.0552L11.5442 12.0554C11.5442 10.6554 10.3232 10.5894 9.83521 10.5894L8.24622 11.8113ZM10.7462 13.2114C10.6148 13.5095 10.4126 13.771 10.1571 13.9732C9.90161 14.1754 9.60057 14.312 9.28021 14.3713C9.21556 14.373 9.15122 14.3614 9.09119 14.3373C9.03123 14.3135 8.97675 14.2777 8.93103 14.2321C8.88531 14.1866 8.8493 14.1323 8.8252 14.0724C8.80109 14.0124 8.78952 13.948 8.7912 13.8834C8.7912 13.5784 8.97424 13.1514 9.89124 13.1514C10.1733 13.1959 10.4587 13.216 10.7442 13.2114H10.7462Z" fill="#DCE5E5"/>
<path d="M11.3613 15.2913C11.8202 15.3957 12.2913 15.4371 12.7614 15.4143C12.9899 15.4539 13.2244 15.4421 13.4479 15.3799C13.6713 15.3176 13.8782 15.2065 14.0534 15.0545C14.2286 14.9025 14.3679 14.7135 14.4611 14.5011C14.5543 14.2887 14.5991 14.0582 14.5923 13.8263C14.5923 12.3003 13.1263 12.6053 13.1263 11.9953C13.1263 11.6903 13.3703 11.5673 13.7983 11.5673C13.9813 11.5673 14.6534 11.6283 14.6534 11.6283L14.8353 10.5283C14.4553 10.4389 14.0656 10.3979 13.6754 10.4063C12.7604 10.4063 12.4543 10.7723 12.4543 11.9933C12.4543 13.3933 13.3704 13.2763 13.3704 13.8243C13.3704 14.1913 12.9424 14.2523 12.6384 14.2523" fill="#DCE5E5"/>
<path d="M36.8218 11.1393C36.6788 10.9654 36.5026 10.8218 36.3034 10.7169C36.1042 10.6119 35.8861 10.5478 35.6618 10.5283C34.5618 10.5283 34.1958 11.8723 34.1958 13.4583C34.1958 14.4363 34.0738 15.4742 35.1118 15.4742C35.3279 15.4736 35.5417 15.4301 35.7409 15.3461C35.94 15.2622 36.1205 15.1395 36.2718 14.9853L36.2118 15.4133H37.4328L38.3488 9.55127L36.8218 11.1393ZM36.7608 12.7263C36.7608 13.3983 36.2118 14.2532 35.5398 14.2532C35.1118 14.2532 34.8678 13.8862 34.8678 13.2762C34.8678 12.2992 35.2958 11.6882 35.8448 11.6882C35.9755 11.6893 36.1045 11.7179 36.2234 11.7722C36.3423 11.8265 36.4484 11.9052 36.5348 12.0032C36.621 12.1016 36.6861 12.2167 36.7259 12.3412C36.7649 12.466 36.7774 12.5974 36.7628 12.7272L36.7608 12.7263Z" fill="#DCE5E5"/>
<path d="M3.23712 15.3522L3.96912 10.9522L4.0921 15.3522H4.94611L6.53308 10.9522L5.86108 15.3522H7.1441L8.12109 9.49121H6.59808L4.8891 13.0912L4.82709 9.49121H4.15509L2.08008 15.3522H3.23712Z" fill="#DCE5E5"/>
<path d="M20.8848 15.3542H22.1677C22.5337 13.3392 22.5947 11.6922 23.4497 11.9962C23.52 11.5103 23.6643 11.0382 23.8777 10.5962H23.6317C23.0827 10.5962 22.6547 11.3282 22.6547 11.3282L22.7767 10.6572" fill="#DCE5E5"/>
<path d="M28.0919 11.8113C28.52 11.6453 28.9758 11.5621 29.4349 11.5663C29.8629 11.5663 30.2299 11.6284 30.2299 11.9944C30.2299 12.2384 30.1689 12.3004 30.1689 12.3004H29.6199C28.5819 12.3004 27.4199 12.7273 27.4199 14.1313C27.4199 15.2313 28.152 15.4744 28.58 15.4744C29.063 15.4675 29.5237 15.2702 29.8619 14.9254L29.8019 15.4133H30.9019L31.3909 12.0554C31.3909 10.6554 30.1699 10.5894 29.6819 10.5894L28.0919 11.8113ZM30.5919 13.2114C30.4605 13.5095 30.2583 13.771 30.0028 13.9732C29.7473 14.1754 29.4463 14.312 29.126 14.3713C29.0616 14.373 28.9976 14.3615 28.9379 14.3373C28.8777 14.3136 28.8229 14.2779 28.7769 14.2324C28.7319 14.1863 28.6963 14.132 28.6719 14.0724C28.6478 14.0124 28.6362 13.948 28.6379 13.8834C28.6379 13.5784 28.821 13.1514 29.738 13.1514C30.0202 13.1943 30.3064 13.2144 30.5919 13.2114Z" fill="#DCE5E5"/>
<path d="M31.1504 15.3542H32.4324C32.7984 13.3392 32.8604 11.6922 33.7144 11.9962C33.785 11.5104 33.9293 11.0384 34.1424 10.5962H33.8954C33.3464 10.5962 32.9184 11.3282 32.9184 11.3282L33.0403 10.6572" fill="#DCE5E5"/>
</svg>
