<svg class="svg-icon" style="width: 1em; height: 1em;vertical-align: middle;fill: currentColor;overflow: hidden;" viewBox="0 0 1024 1024" version="1.1" xmlns="http://www.w3.org/2000/svg"><path d="M768 946.176H256c-98.304 0-178.176-79.872-178.176-178.176V256c0-98.304 79.872-178.176 178.176-178.176h512c98.304 0 178.176 79.872 178.176 178.176v512c0 98.304-79.872 178.176-178.176 178.176zM256 135.168c-66.56 0-120.832 54.272-120.832 120.832v512c0 66.56 54.272 120.832 120.832 120.832h512c66.56 0 120.832-54.272 120.832-120.832V256c0-66.56-54.272-120.832-120.832-120.832H256z" fill="#03A9F4" /><path d="M659.2512 279.552l29.4912 25.1904-161.9968 125.7472-88.2688-75.3664-161.9968 125.5424 29.4912 25.1904 132.5056-100.5568 88.2688 75.3664 191.2832-150.7328 29.4912 25.1904v-75.3664h-88.2688zM397.312 598.4256h-68.608c-11.4688 0-20.6848 8.192-20.6848 18.2272v109.3632c0 10.0352 9.216 18.2272 20.6848 18.2272H397.312c11.4688 0 20.6848-8.192 20.6848-18.2272v-109.3632c0-10.0352-9.216-18.2272-20.6848-18.2272z m157.0816-79.872H485.376c-11.4688 0-20.6848 8.3968-20.6848 18.6368v188.6208c0 10.24 9.216 18.6368 20.6848 18.6368h68.8128c11.4688 0 20.6848-8.3968 20.6848-18.6368v-188.6208c0-10.24-9.216-18.6368-20.48-18.6368z m172.4416-66.56h-68.608c-11.4688 0-20.6848 8.3968-20.6848 18.8416v254.976c0 10.4448 9.216 18.8416 20.6848 18.8416h68.608c11.4688 0 20.6848-8.3968 20.6848-18.8416V470.8352c0-10.4448-9.216-18.8416-20.6848-18.8416z m0 0" fill="#03A9F4" /></svg>