<svg width="25" height="17" viewBox="0 0 25 17" fill="none" xmlns="http://www.w3.org/2000/svg">
<path d="M22.894 7.667H4.69098L9.51198 2.846C9.61237 2.74561 9.69201 2.62641 9.74635 2.49524C9.80068 2.36407 9.82865 2.22348 9.82865 2.0815C9.82865 1.93952 9.80068 1.79893 9.74635 1.66776C9.69201 1.53658 9.61237 1.4174 9.51198 1.317C9.41158 1.21661 9.2924 1.13697 9.16122 1.08263C9.03005 1.0283 8.88946 1.00034 8.74748 1.00034C8.6055 1.00034 8.46491 1.0283 8.33373 1.08263C8.20256 1.13697 8.08337 1.21661 7.98298 1.317L1.31698 7.986C1.21656 8.08638 1.13691 8.20556 1.08256 8.33674C1.02822 8.46791 1.00024 8.60851 1.00024 8.7505C1.00024 8.89248 1.02822 9.03308 1.08256 9.16425C1.13691 9.29543 1.21656 9.41461 1.31698 9.515L7.98298 16.182C8.18574 16.3848 8.46074 16.4987 8.74748 16.4987C9.03422 16.4987 9.30922 16.3848 9.51198 16.182C9.71474 15.9792 9.82865 15.7042 9.82865 15.4175C9.82865 15.1308 9.71474 14.8558 9.51198 14.653L4.69098 9.82899H22.891C23.1777 9.82899 23.4526 9.71511 23.6554 9.51238C23.8581 9.30966 23.972 9.0347 23.972 8.748C23.972 8.4613 23.8581 8.18635 23.6554 7.98362C23.4526 7.78089 23.1777 7.667 22.891 7.667H22.894Z" fill="#232837" stroke="white" stroke-width="0.5"/>
</svg>
