<svg width="22" height="23" viewBox="0 0 22 23" fill="none" xmlns="http://www.w3.org/2000/svg">
<path d="M11.722 22.208H10.352C10.085 22.175 9.81705 22.146 9.55205 22.108C7.25663 21.7862 5.1215 20.7476 3.4514 19.1404C1.78129 17.5331 0.661575 15.4394 0.25205 13.158C0.17605 12.753 0.13205 12.343 0.0760498 11.934V10.564C0.10905 10.296 0.13705 10.027 0.17605 9.764C0.484816 7.43198 1.54992 5.2656 3.20805 3.597C4.18891 2.57419 5.36276 1.75593 6.66175 1.1895C7.96074 0.623083 9.35912 0.319736 10.776 0.296996C12.8154 0.210256 14.8344 0.73242 16.576 1.797C18.2125 2.73054 19.5747 4.07797 20.526 5.70414C21.4773 7.33031 21.9843 9.17804 21.996 11.062C22.0704 13.1072 21.5294 15.1276 20.4431 16.862C19.6431 18.2188 18.5565 19.3846 17.2591 20.2777C15.9618 21.1709 14.485 21.77 12.932 22.033C12.5271 22.115 12.123 22.153 11.722 22.208ZM10.0251 12.987C9.94205 12.881 9.91505 12.837 9.88005 12.802C9.16505 12.085 8.44705 11.372 7.73305 10.653C7.65113 10.5603 7.55126 10.4852 7.43947 10.4323C7.32769 10.3793 7.20632 10.3496 7.08271 10.345C6.95911 10.3403 6.83584 10.3608 6.72038 10.4051C6.60492 10.4495 6.49966 10.5168 6.41099 10.6031C6.32232 10.6893 6.25207 10.7926 6.2045 10.9068C6.15693 11.021 6.13304 11.1436 6.13426 11.2673C6.13548 11.391 6.16179 11.5132 6.2116 11.6264C6.26142 11.7396 6.33369 11.8415 6.42405 11.926C7.36338 12.8727 8.30605 13.8157 9.25205 14.755C9.33905 14.8748 9.45318 14.9723 9.5851 15.0396C9.71702 15.1068 9.86298 15.1418 10.0111 15.1418C10.1591 15.1418 10.3051 15.1068 10.437 15.0396C10.5689 14.9723 10.683 14.8748 10.7701 14.755L16.47 9.055C16.5323 8.99618 16.5914 8.93409 16.647 8.869C16.7509 8.74669 16.8205 8.59902 16.8487 8.44104C16.8769 8.28306 16.8626 8.12044 16.8074 7.96976C16.7522 7.81908 16.658 7.68575 16.5345 7.58337C16.4109 7.48099 16.2624 7.41323 16.104 7.387C15.9454 7.35953 15.7824 7.37376 15.6309 7.42828C15.4795 7.4828 15.3448 7.57574 15.24 7.698C13.5627 9.37866 11.8841 11.0583 10.2041 12.737C10.1388 12.8149 10.0793 12.8974 10.026 12.984L10.0251 12.987Z" fill="#619F32"/>
</svg>
